# AST/ASF file generated using VICON BodyLanguage
# -----------------------------------------------
:version 1.10
:name VICON
:units
  mass 1.0
  length 0.45
  angle deg
:documentation
   .ast/.asf automatically generated from VICON data using
   VICON BodyBuilder and BodyLanguage model FoxedUp or BRILLIANT.MOD
:root
   order TX TY TZ RX RY RZ
   axis XYZ
   position 0 0 0  
   orientation 0 0 0 
:bonedata
  begin
     id 1 
     name lhipjoint
     direction 0.682418 -0.694059 0.22932 
     length 2.25561 
     axis 0 0 0  XYZ
  end
  begin
     id 2 
     name lfemur
     direction 0.34202 -0.939693 0  
     length 6.96448  
     axis 0 0 20  XYZ
    dof rx ry rz
    limits (-160.0 20.0)
           (-70.0 70.0)
           (-60.0 70.0)
  end
  begin
     id 3 
     name ltibia
     direction 0.34202 -0.939693 0   
     length 6.88553   
     axis 0 0 20   XYZ
    dof rx
    limits (-10.0 170.0)
  end
  begin
     id 4 
     name lfoot
     direction 0.0723587 -0.198804 0.977364   
     length 1.88518   
     axis -90 7.62852e-016 20   XYZ
    dof rx rz
    limits (-45.0 90.0)
           (-70.0 20.0)
  end
  begin
     id 5 
     name ltoes
     direction 1.53558e-011 -4.21962e-011 1   
     length 0.952124   
     axis -90 7.62852e-016 20   XYZ
    dof rx
    limits (-90.0 20.0)
  end
  begin
     id 6 
     name rhipjoint
     direction -0.657603 -0.71533 0.236348   
     length 2.18854  
     axis 0 0 0  XYZ 
  end
  begin
     id 7 
     name rfemur
     direction -0.34202 -0.939693 0   
     length 6.86686   
     axis 0 0 -20   XYZ
    dof rx ry rz
    limits (-160.0 20.0)
           (-70.0 70.0)
           (-70.0 60.0)
  end
  begin
     id 8 
     name rtibia
     direction -0.34202 -0.939693 0   
     length 6.59503   
     axis 0 0 -20   XYZ
    dof rx
    limits (-10.0 170.0)
 end
 begin
     id 9 
     name rfoot
     direction -0.101977 -0.280179 0.954516   
     length 1.93723  
     axis -90 -7.62852e-016 -20   XYZ
    dof rx rz
    limits (-45.0 90.0)
           (-20.0 70.0)
  end
  begin
     id 10 
     name rtoes
     direction -1.53564e-011 -4.21897e-011 1   
     length 0.970315   
     axis -90 -7.62852e-016 -20   XYZ
    dof rx
    limits (-90.0 20.0)
  end
  begin
     id 11 
     name lowerback
     direction -0.0339559 0.999421 -0.00235966   
     length 1.88543   
     axis 0 0 0   XYZ
    dof rx ry rz
    limits (-20.0 45.0)
           (-30.0 30.0)
           (-30.0 30.0)
  end
  begin
     id 12 
     name upperback
     direction 0.00401003 0.999739 0.0224689   
     length 1.8856   
     axis 0 0 0   XYZ
    dof rx ry rz
    limits (-20.0 45.0)
           (-30.0 30.0)
           (-30.0 30.0)
  end
  begin
     id 13 
     name thorax
     direction 0.0198619 0.999546 0.0226536   
     length 1.88352   
     axis 0 0 0   XYZ
    dof rx ry rz
    limits (-20.0 45.0)
           (-30.0 30.0)
           (-30.0 30.0)
  end
  begin
     id 14 
     name lowerneck
     direction -0.0461848 0.998632 0.0245198   
     length 1.34895   
     axis 0 0 0   XYZ
    dof rx ry rz
    limits (-20.0 45.0)
           (-30.0 30.0)
           (-30.0 30.0)
  end
  begin
     id 15 
     name upperneck
     direction -0.0180627 0.994724 -0.100984   
     length 1.35214   
     axis 0 0 0   XYZ
    dof rx ry rz
    limits (-20.0 45.0)
           (-30.0 30.0)
           (-30.0 30.0)
  end
  begin
     id 16
     name head
     direction -0.00374772 0.999293 -0.037403  
     length 1.3568  
     axis 0 0 0   XYZ
    dof rx ry rz
    limits (-20.0 45.0)
           (-30.0 30.0)
           (-30.0 30.0)
  end
  begin
     id 17 
     name lclavicle
     direction 0.971773 0.191119 0.138311  
     length 2.84954  
     axis 0 0 0   XYZ
    dof ry rz
    limits (-20.0 10.0)
           (0.0 20.0)
  end
  begin
     id 18 
     name lhumerus
     direction 1 -4.4897e-011 -2.43761e-027   
     length 4.40919   
     axis 180 -30 -90   XYZ
    dof rx ry rz
    limits (-60.0 90.0)
           (-90.0 90.0)
           (-90.0 90.0)
  end
  begin
     id 19
     name lradius
     direction 1 -4.4896e-011 -9.1621e-027   
     length 3.03857   
     axis 180 -30 -90   XYZ
    dof rx
    limits (-10.0 170.0)
  end
  begin
     id 20
     name lwrist
     direction 1 -4.4896e-011 -1.41363e-026   
     length 1.51928   
     axis 1.07133e-014 90 90   XYZ
    dof ry
    limits (-180.0 0.0)
 end
  begin
     id 21 
     name lhand
     direction 1 -4.48978e-011 -2.82725e-026   
     length 0.523208   
     axis 1.80403e-014 90 90   XYZ
    dof rx rz
    limits (-90.0 90.0)
           (-45.0 45.0)
  end
  begin
     id 22 
     name lfingers
     direction 1 -4.48977e-011 -5.6545e-026   
     length 0.421824   
     axis 3.60806e-014 90 90   XYZ
    dof rx
    limits (0.0 90.0)
  end
  begin
     id 23
     name lthumb
     direction 0.707107 -6.34962e-011 0.707107   
     length 0.605657   
     axis -90 45 2.85299e-015   XYZ
    dof rx rz
    limits (-45.0 45.0)
           (-45.0 45.0)
  end
  begin
     id 24 
     name rclavicle
     direction -0.957247 0.24311 0.156766   
     length 3.12406  
     axis 0 0 0   XYZ 
    dof ry rz
    limits (-10.0 20.0)
           (-20.0 0.0)
  end
  begin
     id 25 
     name rhumerus
     direction -1 -4.48964e-011 -1.70632e-027  
     length 4.61969   
     axis 180 30 90   XYZ
    dof rx ry rz
    limits (-90.0 60.0)
           (-90.0 90.0)
           (-90.0 90.0)
  end
  begin
     id 26 
     name rradius
     direction -1 -4.48966e-011 -6.60395e-027   
     length 3.09382   
     axis 180 30 90   XYZ
    dof rx
    limits (-10.0 170.0)
  end
  begin
     id 27 
     name rwrist
     direction -1 -4.48963e-011 -1.41363e-026   
     length 1.54691   
     axis 1.07133e-014 -90 -90   XYZ
    dof ry
    limits (-180.0 0.0)
  end
  begin
     id 28
     name rhand
     direction -1 -4.49013e-011 -2.82725e-026   
     length 0.500896   
     axis 1.80403e-014 -90 -90   XYZ
    dof rx rz
    limits (-90.0 90.0)
           (-45.0 45.0)
  end
  begin
     id 29
     name rfingers
     direction -1 -4.48902e-011 -5.6545e-026   
     length 0.403835   
     axis 3.60806e-014 -90 -90   XYZ
    dof rx
    limits (0.0 90.0)
  end
  begin
     id 30
     name rthumb
     direction -0.707107 -6.34953e-011 0.707107   
     length 0.579829   
     axis -90 -45 -2.85299e-015   XYZ
    dof rx rz
    limits (-45.0 45.0)
           (-45.0 45.0)
  end
:hierarchy
  begin
    root lhipjoint rhipjoint lowerback
    lhipjoint lfemur
    lfemur ltibia
    ltibia lfoot
    lfoot ltoes
    rhipjoint rfemur
    rfemur rtibia
    rtibia rfoot
    rfoot rtoes
    lowerback upperback
    upperback thorax
    thorax lowerneck lclavicle rclavicle
    lowerneck upperneck
    upperneck head
    lclavicle lhumerus
    lhumerus lradius
    lradius lwrist
    lwrist lhand lthumb
    lhand lfingers
    rclavicle rhumerus
    rhumerus rradius
    rradius rwrist
    rwrist rhand rthumb
    rhand rfingers
  end

#!OML:ASF E:\madness\Project 1\Capture day 1\Session 1\Female1.ASF
:FULLY-SPECIFIED
:DEGREES
1222
root -10.0631 16.1397 -5.74423 -357.713 -66.1609 368.637
lowerback 1.82634 1.90097 -3.32077
upperback -1.89661 2.40862 -0.517738
thorax -3.09043 1.26491 1.216
lowerneck -0.953155 9.51347 5.58018
upperneck 27.5561 13.7259 -6.19161
head 9.69589 6.15889 -1.89826
rclavicle -8.24956e-015 -4.37326e-015
rhumerus -59.523 -20.0554 -45.0969
rradius 55.8728
rwrist -2.07634
rhand -15.1926 -44.6257
rfingers 7.12502
rthumb 10.979 -74.3186
lclavicle -8.24956e-015 -4.37326e-015
lhumerus -58.6111 18.2568 64.438
lradius 70.1378
lwrist -2.50916
lhand -35.3337 -7.81382
lfingers 7.12502
lthumb -8.46679 21.9964
rfemur -2.63599 5.4243 24.5552
rtibia 10.2982
rfoot -16.735 -15.1243
rtoes 23.3819
lfemur -52.1268 -12.5728 -6.47372
ltibia 45.5099
lfoot 10.4275 2.46487
ltoes 33.8225
1223
root -10.1045 16.1292 -5.714 -357.773 -66.5557 368.61
lowerback 1.75113 1.97295 -3.20195
upperback -1.87477 2.51159 -0.536311
thorax -3.02399 1.31241 1.12893
lowerneck -1.03892 9.47995 5.65937
upperneck 27.4892 13.6681 -6.19371
head 9.68921 6.13993 -1.91315
rclavicle 6.08281e-014 -5.1684e-015
rhumerus -59.7218 -20.4274 -44.9198
rradius 56.073
rwrist -2.31839
rhand -14.8816 -44.6422
rfingers 7.12502
rthumb 11.279 -74.3189
lclavicle 6.08281e-014 -5.1684e-015
lhumerus -58.6452 18.0317 64.4178
lradius 70.1828
lwrist -2.33413
lhand -35.0648 -8.33182
lfingers 7.12502
lthumb -8.20732 21.4888
rfemur -2.04254 5.50239 24.5652
rtibia 9.57864
rfoot -16.1666 -15.1154
rtoes 22.579
lfemur -51.9493 -12.8109 -6.04478
ltibia 44.1169
lfoot 10.9801 1.82276
ltoes 34.1789
1224
root -10.1486 16.1233 -5.6839 -357.751 -66.9837 368.531
lowerback 1.63054 2.30259 -2.93114
upperback -1.76848 2.96668 -0.567319
thorax -2.85053 1.53066 0.932605
lowerneck -1.53433 9.22934 5.08464
upperneck 27.4643 13.2811 -5.82376
head 9.67112 5.93257 -1.7114
rclavicle 3.76697e-014 6.75868e-015
rhumerus -60.3455 -21.32 -44.2735
rradius 56.4678
rwrist -2.53807
rhand -14.2944 -45.6434
rfingers 7.12502
rthumb 11.8452 -75.2884
lclavicle 3.76697e-014 6.75868e-015
lhumerus -58.1831 17.3155 65.0179
lradius 70.2164
lwrist -2.10358
lhand -35.0266 -8.32216
lfingers 7.12502
lthumb -8.17044 21.4999
rfemur -1.60877 5.61652 24.582
rtibia 9.15434
rfoot -15.9252 -14.9738
rtoes 22.6305
lfemur -51.632 -12.9119 -5.69424
ltibia 42.6597
lfoot 11.1585 2.13086
ltoes 33.0236
1225
root -10.1912 16.1236 -5.65369 -357.716 -67.4518 368.439
lowerback 1.50713 2.22549 -2.96195
upperback -1.86194 2.86628 -0.514523
thorax -2.87783 1.48284 1.0112
lowerneck -1.41089 9.36597 5.05667
upperneck 27.4027 13.4542 -5.76683
head 9.63155 6.01816 -1.67666
rclavicle -4.10987e-014 -1.86858e-014
rhumerus -60.2847 -21.0703 -44.5856
rradius 56.5707
rwrist -2.54911
rhand -12.8316 -47.1599
rfingers 7.12502
rthumb 13.2555 -76.7184
lclavicle -4.10987e-014 -1.86858e-014
lhumerus -58.5899 17.4427 64.6446
lradius 70.2067
lwrist -1.90237
lhand -35.2089 -7.99472
lfingers 7.12502
lthumb -8.34636 21.8204
rfemur -1.27091 5.77016 24.5843
rtibia 8.93023
rfoot -15.8781 -14.7037
rtoes 22.4433
lfemur -51.2473 -13.1581 -5.23828
ltibia 41.2419
lfoot 11.2577 2.44478
ltoes 31.1454
1226
root -10.2304 16.1238 -5.62182 -357.699 -67.9636 368.415
lowerback 1.43129 2.29085 -2.8756
upperback -1.93882 2.95697 -0.506061
thorax -2.91406 1.52733 0.968954
lowerneck -1.65948 9.44414 4.94092
upperneck 27.5122 13.5486 -5.63674
head 9.70523 6.05318 -1.58987
rclavicle -3.13583e-014 1.19271e-014
rhumerus -60.3954 -21.2068 -44.4121
rradius 56.4979
rwrist -2.33492
rhand -13.4402 -45.9869
rfingers 7.12502
rthumb 12.6688 -75.5827
lclavicle -3.13583e-014 1.19271e-014
lhumerus -58.6452 17.3747 64.5509
lradius 70.0687
lwrist -1.93138
lhand -35.4354 -7.61949
lfingers 7.12502
lthumb -8.56494 22.1868
rfemur -1.01861 5.96943 24.5367
rtibia 8.70844
rfoot -15.7146 -14.5476
rtoes 21.7252
lfemur -50.9575 -13.5095 -4.72033
ltibia 39.9265
lfoot 11.2069 2.49498
ltoes 28.1031
1227
root -10.2713 16.1178 -5.58921 -357.598 -68.3888 368.326
lowerback 1.32578 2.34627 -2.73772
upperback -2.00968 3.03664 -0.505749
thorax -2.92342 1.56472 0.8918
lowerneck -1.67932 9.43946 4.9672
upperneck 27.412 13.5572 -5.72608
head 9.68175 6.05354 -1.62333
rclavicle -1.69464e-014 1.59028e-015
rhumerus -60.4955 -21.5157 -44.1865
rradius 56.5697
rwrist -2.55701
rhand -13.5319 -45.8248
rfingers 7.12502
rthumb 12.5805 -75.426
lclavicle -1.69464e-014 1.59028e-015
lhumerus -58.6978 17.2588 64.5107
lradius 70.0591
lwrist -2.00303
lhand -35.3907 -7.55366
lfingers 7.12502
lthumb -8.52183 22.2544
rfemur -0.760417 6.08547 24.5179
rtibia 8.44267
rfoot -15.6412 -14.3942
rtoes 21.8779
lfemur -50.7377 -13.6325 -4.36171
ltibia 38.678
lfoot 11.6144 2.30291
ltoes 26.6883
1228
root -10.3187 16.1082 -5.55676 -357.412 -68.784 368.049
lowerback 1.18746 2.30352 -2.65034
upperback -2.04988 2.98701 -0.445872
thorax -2.88364 1.53873 0.911728
lowerneck -1.4301 9.4699 4.96852
upperneck 27.1742 13.6025 -5.79847
head 9.55787 6.08006 -1.65926
rclavicle -7.9663e-014 1.86858e-014
rhumerus -60.4282 -21.6691 -44.1999
rradius 56.6301
rwrist -2.72364
rhand -14.9057 -45.5774
rfingers 7.12502
rthumb 11.2557 -75.2554
lclavicle -7.9663e-014 1.86858e-014
lhumerus -58.9725 17.2668 64.3102
lradius 70.2152
lwrist -1.93067
lhand -35.1346 -7.34912
lfingers 7.12502
lthumb -8.27468 22.4688
rfemur -0.307505 6.17097 24.606
rtibia 8.11687
rfoot -15.6401 -14.1423
rtoes 22.7644
lfemur -50.4073 -13.6282 -4.03236
ltibia 37.4576
lfoot 12.0071 2.23695
ltoes 27.3291
1229
root -10.3686 16.1008 -5.52191 -357.277 -69.2959 367.8
lowerback 1.00031 2.20597 -2.65107
upperback -2.07788 2.86376 -0.371273
thorax -2.80641 1.47756 1.00089
lowerneck -1.22072 9.61652 4.88993
upperneck 27.0701 13.7671 -5.65127
head 9.47552 6.16888 -1.59286
rclavicle 7.00467e-014 1.31198e-014
rhumerus -60.2726 -21.7123 -44.2659
rradius 56.5016
rwrist -1.9787
rhand -15.8376 -44.8877
rfingers 7.12502
rthumb 10.3568 -74.6127
lclavicle 7.00467e-014 1.31198e-014
lhumerus -59.4 17.4018 63.9109
lradius 70.3498
lwrist -1.82848
lhand -35.2194 -7.20215
lfingers 7.12502
lthumb -8.35654 22.6125
rfemur 0.346554 6.36853 24.6588
rtibia 7.50027
rfoot -15.4873 -13.8569
rtoes 23.4273
lfemur -50.0415 -13.7609 -3.61568
ltibia 36.3044
lfoot 12.5618 2.49657
ltoes 27.5901
1230
root -10.4149 16.0941 -5.48262 -357.137 -69.8058 367.505
lowerback 0.944674 2.12708 -2.53077
upperback -2.11283 2.76317 -0.329337
thorax -2.80331 1.42548 0.982169
lowerneck -1.02329 9.74705 4.85455
upperneck 26.9321 13.9112 -5.5313
head 9.3872 6.25102 -1.54482
rclavicle 6.57729e-014 -1.39149e-014
rhumerus -60.1545 -21.6383 -44.4625
rradius 56.4686
rwrist -1.60109
rhand -14.7182 -45.2305
rfingers 7.12502
rthumb 11.4365 -74.8986
lclavicle 6.57729e-014 -1.39149e-014
lhumerus -59.5839 17.5286 63.5092
lradius 70.0661
lwrist -1.79855
lhand -35.4473 -7.96593
lfingers 7.12502
lthumb -8.5765 21.8399
rfemur 1.18406 6.56228 24.7162
rtibia 6.53357
rfoot -15.0807 -13.7345
rtoes 23.2713
lfemur -49.7017 -14.031 -3.17214
ltibia 35.2276
lfoot 12.7046 3.08332
ltoes 28.1574
1231
root -10.4597 16.0896 -5.4442 -356.907 -70.2862 367.145
lowerback 0.95728 2.10986 -2.33229
upperback -2.19097 2.74416 -0.278584
thorax -2.883 1.41349 0.921881
lowerneck -0.963088 9.79223 4.58276
upperneck 26.8982 13.934 -5.29368
head 9.32565 6.25863 -1.42515
rclavicle 8.13029e-014 5.96354e-015
rhumerus -60.2128 -21.4986 -44.6292
rradius 56.5515
rwrist -1.88267
rhand -14.0483 -45.9743
rfingers 7.12502
rthumb 12.0825 -75.6055
lclavicle 8.13029e-014 5.96354e-015
lhumerus -59.6919 17.4487 63.3319
lradius 69.8446
lwrist -1.65746
lhand -35.4133 -8.58218
lfingers 7.12502
lthumb -8.54364 21.225
rfemur 2.0262 6.73082 24.8261
rtibia 5.45222
rfoot -14.391 -13.8329
rtoes 21.8537
lfemur -49.2821 -14.2245 -2.78699
ltibia 34.2002
lfoot 12.9062 3.11882
ltoes 26.7599
1232
root -10.5075 16.0871 -5.4091 -356.704 -70.8458 366.907
lowerback 0.832624 2.16403 -2.2295
upperback -2.08456 2.82592 -0.220932
thorax -2.7036 1.45083 0.928528
lowerneck -1.7228 9.8364 4.37064
upperneck 27.1404 14.0119 -5.21065
head 9.53393 6.25653 -1.31031
rclavicle -1.29955e-014 4.77083e-015
rhumerus -60.0728 -21.8937 -44.547
rradius 56.5025
rwrist -1.64674
rhand -15.0027 -45.6776
rfingers 7.12502
rthumb 11.1621 -75.3607
lclavicle -1.29955e-014 4.77083e-015
lhumerus -59.3674 17.5124 63.3977
lradius 69.798
lwrist -1.57555
lhand -35.3343 -8.4119
lfingers 7.12502
lthumb -8.46739 21.3984
rfemur 2.77498 6.98352 24.8574
rtibia 4.38068
rfoot -13.7931 -13.7421
rtoes 21.7164
lfemur -48.8637 -14.4235 -2.36596
ltibia 33.2463
lfoot 13.2497 3.18631
ltoes 25.5156
1233
root -10.5555 16.0848 -5.37325 -356.873 -71.4222 366.946
lowerback 0.807 2.08696 -2.35697
upperback -2.21704 2.71954 -0.149556
thorax -2.83197 1.40299 1.07422
lowerneck -1.17068 9.89603 4.60533
upperneck 26.948 14.1155 -5.46886
head 9.40878 6.31732 -1.45707
rclavicle -5.08889e-014 7.95139e-016
rhumerus -60.0541 -21.5295 -44.708
rradius 56.5463
rwrist -1.7765
rhand -14.8656 -45.6152
rfingers 7.12502
rthumb 11.2944 -75.2911
lclavicle -5.08889e-014 7.95139e-016
lhumerus -59.8509 17.6067 62.9928
lradius 69.8717
lwrist -1.53934
lhand -35.3759 -8.05074
lfingers 7.12502
lthumb -8.50757 21.7579
rfemur 3.6012 7.24023 24.7382
rtibia 3.4389
rfoot -13.666 -13.3251
rtoes 24.7114
lfemur -48.4013 -14.7623 -1.98035
ltibia 32.3637
lfoot 13.5687 4.14639
ltoes 27.4278
1234
root -10.6036 16.0842 -5.33426 -357.086 -71.9264 366.975
lowerback 0.851012 2.21901 -2.22853
upperback -2.29557 2.89352 -0.238118
thorax -2.93307 1.48694 0.901596
lowerneck -0.835511 9.73874 4.80229
upperneck 26.7749 13.8566 -5.43744
head 9.28137 6.2312 -1.5244
rclavicle -7.52897e-015 9.14409e-015
rhumerus -60.5006 -21.4951 -44.7519
rradius 56.7283
rwrist -2.48717
rhand -12.211 -46.7828
rfingers 7.12502
rthumb 13.8537 -76.3014
lclavicle -7.52897e-015 9.14409e-015
lhumerus -59.8711 17.0827 62.9657
lradius 69.9253
lwrist -1.43112
lhand -35.4578 -7.94545
lfingers 7.12502
lthumb -8.58659 21.8599
rfemur 4.57994 7.4226 24.6584
rtibia 2.27257
rfoot -13.2253 -13.1837
rtoes 25.8244
lfemur -47.8753 -15.1416 -1.62646
ltibia 31.5037
lfoot 13.9096 4.39759
ltoes 27.8063
